<?xml version="1.0" encoding="UTF-8"?>
<!DOCTYPE svg PUBLIC "-//W3C//DTD SVG 1.1//EN" "http://www.w3.org/Graphics/SVG/1.1/DTD/svg11.dtd">
<svg xmlns="http://www.w3.org/2000/svg" version="1.1" width="256px" height="256px" style="shape-rendering:geometricPrecision; text-rendering:geometricPrecision; image-rendering:optimizeQuality; fill-rule:evenodd; clip-rule:evenodd" xmlns:xlink="http://www.w3.org/1999/xlink">
<g><path style="opacity:0.997" fill="#232938" d="M 48.5,-0.5 C 101.167,-0.5 153.833,-0.5 206.5,-0.5C 232.477,6.14393 248.811,22.4773 255.5,48.5C 255.5,101.167 255.5,153.833 255.5,206.5C 248.807,232.527 232.473,248.86 206.5,255.5C 153.833,255.5 101.167,255.5 48.5,255.5C 22.4734,248.807 6.14008,232.473 -0.5,206.5C -0.5,153.833 -0.5,101.167 -0.5,48.5C 6.14008,22.5266 22.4734,6.19324 48.5,-0.5 Z"/></g>
<g><path style="opacity:1" fill="#214573" d="M 116.5,27.5 C 167.148,26.2185 202.648,48.5518 223,94.5C 236.231,138.076 226.398,175.576 193.5,207C 149.444,239.538 105.444,239.538 61.5,207C 31.1285,178.692 20.2952,144.192 29,103.5C 43.1771,60.8179 72.3437,35.4845 116.5,27.5 Z"/></g>
<g><path style="opacity:1" fill="#f2f3f4" d="M 81.5,81.5 C 86.1667,81.5 90.8333,81.5 95.5,81.5C 95.6633,83.8568 95.4966,86.1902 95,88.5C 91.2159,88.7273 88.2159,90.3939 86,93.5C 85.6667,101.167 85.3333,108.833 85,116.5C 83.5668,122.1 80.4002,126.433 75.5,129.5C 78.458,131.956 81.2913,134.622 84,137.5C 85.2441,146.091 85.9108,154.758 86,163.5C 87,167.167 89.3333,169.5 93,170.5C 93.6667,172.833 93.6667,175.167 93,177.5C 85.33,179.179 78.9967,176.846 74,170.5C 72.7179,160.933 72.0513,151.266 72,141.5C 69.5219,137.02 65.8552,134.02 61,132.5C 60.3333,130.5 60.3333,128.5 61,126.5C 66.2667,124.899 69.9334,121.565 72,116.5C 72.3333,107.833 72.6667,99.1667 73,90.5C 75.3622,86.9734 78.1955,83.9734 81.5,81.5 Z"/></g>
<g><path style="opacity:1" fill="#eeeff1" d="M 101.5,81.5 C 105.182,81.3347 108.848,81.5014 112.5,82C 113.333,82.8333 114.167,83.6667 115,84.5C 115.333,104.5 115.667,124.5 116,144.5C 120.973,144.585 123.14,147.085 122.5,152C 122.371,153.981 121.704,155.647 120.5,157C 114.903,158.091 109.57,157.424 104.5,155C 103.15,153.282 101.983,151.448 101,149.5C 100.178,126.761 100.345,104.094 101.5,81.5 Z"/></g>
<g><path style="opacity:1" fill="#f3f4f5" d="M 169.5,177.5 C 167.5,177.5 165.5,177.5 163.5,177.5C 163.5,175.167 163.5,172.833 163.5,170.5C 167.549,168.939 170.049,165.939 171,161.5C 171.333,153.5 171.667,145.5 172,137.5C 174.505,134.495 177.339,131.828 180.5,129.5C 176.788,126.952 173.955,123.618 172,119.5C 171.667,111.5 171.333,103.5 171,95.5C 170,91.8333 167.667,89.5 164,88.5C 163.503,86.1902 163.337,83.8568 163.5,81.5C 172.974,79.6544 179.807,82.9877 184,91.5C 184.333,99.8333 184.667,108.167 185,116.5C 187,121.167 190.333,124.5 195,126.5C 195.667,128.167 195.667,129.833 195,131.5C 191.065,133.437 187.732,136.104 185,139.5C 184.667,147.833 184.333,156.167 184,164.5C 182.151,172.184 177.317,176.517 169.5,177.5 Z"/></g>
<g><path style="opacity:1" fill="#f3f3f4" d="M 140.5,108.5 C 147.117,108.19 153.45,109.357 159.5,112C 160.99,112.745 161.99,113.912 162.5,115.5C 161.632,118.066 160.632,120.566 159.5,123C 155.104,122.707 150.771,121.874 146.5,120.5C 141.409,120.3 140.409,122.133 143.5,126C 147.897,127.515 152.23,129.182 156.5,131C 162.659,136.312 164.159,142.812 161,150.5C 154.351,157.731 146.185,160.231 136.5,158C 133.05,156.97 129.717,155.637 126.5,154C 125.378,149.879 126.711,146.712 130.5,144.5C 135.556,147.117 140.889,147.951 146.5,147C 149.064,144.724 148.73,142.724 145.5,141C 137.162,140.102 131.328,135.935 128,128.5C 127.163,124.705 127.496,121.039 129,117.5C 132.158,113.493 135.992,110.493 140.5,108.5 Z"/></g>
<g><path style="opacity:1" fill="#6981a0" d="M 163.5,170.5 C 163.5,172.833 163.5,175.167 163.5,177.5C 165.5,177.5 167.5,177.5 169.5,177.5C 167.393,178.468 165.059,178.802 162.5,178.5C 162.194,175.615 162.527,172.948 163.5,170.5 Z"/></g>
</svg>
